<svg width="9" height="9" viewBox="0 0 9 9" fill="none" xmlns="http://www.w3.org/2000/svg">
<path d="M4.6866 6.33684L8.14494 7.86234C7.93129 7.6487 7.56471 6.95665 7.80525 5.89647C8.10574 4.57116 8.66984 3.23855 6.58331 2.50731C5.85206 0.420781 4.51945 0.984873 3.19414 1.28536C2.13359 1.52591 1.44192 1.15933 1.22827 0.945679L2.76531 4.43245M3.53383 5.55679H2.38105L1.22827 6.70957H2.38105V7.86234L3.53383 6.70957V5.55679ZM3.53383 5.55679L8.14494 0.945679M6.99216 0.945679H7.76068C7.94166 0.945679 8.03235 0.945679 8.08884 1.00178C8.14494 1.05827 8.14494 1.14934 8.14494 1.32994V2.09846" stroke="#546170" stroke-width="0.691667" stroke-linecap="round" stroke-linejoin="round"/>
</svg>
