<svg width="146" height="146" viewBox="0 0 146 146" fill="none" xmlns="http://www.w3.org/2000/svg">
<g filter="url(#filter0_d_3_866)">
<rect x="42.2097" y="22.3691" width="62" height="62" rx="21.1901" fill="url(#paint0_linear_3_866)" shape-rendering="crispEdges"/>
<rect x="42.7097" y="22.8691" width="61" height="61" rx="20.6901" stroke="white" stroke-opacity="0.6" shape-rendering="crispEdges"/>
<g clip-path="url(#clip0_3_866)">
<path fill-rule="evenodd" clip-rule="evenodd" d="M74.1501 71.1943L74.1311 71.1975L74.0187 71.2529L73.987 71.2592L73.9649 71.2529L73.8525 71.1959C73.8356 71.1917 73.8229 71.1948 73.8145 71.2054L73.8081 71.2212L73.7812 71.8989L73.7891 71.9306L73.805 71.9511L73.9696 72.0683L73.9934 72.0746L74.0124 72.0683L74.177 71.9511L74.196 71.9258L74.2024 71.8989L74.1755 71.2228C74.1712 71.2059 74.1628 71.1964 74.1501 71.1943ZM74.5681 71.0154L74.546 71.0186L74.2546 71.1658L74.2388 71.1816L74.234 71.1991L74.2625 71.8799L74.2705 71.8989L74.2831 71.9116L74.6014 72.0572C74.6214 72.0625 74.6367 72.0583 74.6473 72.0446L74.6536 72.0224L74.5998 71.0502C74.5945 71.0302 74.584 71.0186 74.5681 71.0154ZM73.436 71.0186C73.4291 71.0143 73.4207 71.013 73.4128 71.0147C73.4048 71.0165 73.3978 71.0213 73.3933 71.0281L73.3838 71.0502L73.33 72.0224C73.331 72.0414 73.34 72.0541 73.3569 72.0604L73.3806 72.0572L73.6989 71.91L73.7147 71.8973L73.7195 71.8799L73.748 71.1991L73.7432 71.1801L73.7274 71.1642L73.436 71.0186Z" fill="white"/>
<path fill-rule="evenodd" clip-rule="evenodd" d="M74.2119 37.7068C75.4628 37.6118 76.5078 38.3227 77.035 39.2743L78.9667 42.7735C81.7248 42.5962 83.8465 43.6158 85.376 44.987C87.0528 46.4912 87.9917 48.3817 88.4318 49.4583C88.9068 50.6189 88.5553 51.8333 87.8143 52.6282L85.0815 55.5478C86.1043 58.116 85.7893 60.4482 84.958 62.3277C84.046 64.386 82.5371 65.8632 81.6488 66.6153C80.6925 67.426 79.429 67.4672 78.4442 67.0064L74.8231 65.3107C72.6967 67.0761 70.3803 67.4972 68.3378 67.2867C66.0973 67.0571 64.2258 66.0786 63.2363 65.4658C62.1691 64.8056 61.74 63.6165 61.8746 62.5382L62.3686 58.5704C60.0316 57.0932 58.9153 55.0206 58.4831 53.0129C58.0113 50.8121 58.3628 48.73 58.6398 47.5979C58.9375 46.3803 59.935 45.6029 61.0022 45.3987L64.9288 44.6418C65.6113 41.9644 67.2373 40.2607 69.0138 39.2316C70.9613 38.1011 73.0513 37.7923 74.2119 37.7068ZM74.3022 40.8751C73.3522 40.9606 71.8923 41.2234 70.6035 41.9692C69.3147 42.7181 68.1604 43.961 67.8438 46.2157C67.7979 46.5426 67.651 46.847 67.4236 47.0863C67.1962 47.3257 66.8997 47.4879 66.5755 47.5504L61.683 48.4925C61.4693 49.4219 61.2666 50.8912 61.5801 52.3479C61.892 53.8046 62.7201 55.2866 64.7658 56.2841C65.0627 56.4288 65.3068 56.6628 65.4641 56.9533C65.6214 57.2437 65.6839 57.5761 65.6429 57.9038L65.0254 62.8486C65.844 63.3394 67.1788 63.9838 68.6608 64.1374C70.1443 64.2894 71.8084 63.9632 73.3902 62.3245C73.6194 62.0872 73.9171 61.9274 74.2415 61.8675C74.566 61.8076 74.9011 61.8506 75.1999 61.9904L79.7124 64.1042C80.4328 63.4772 81.4588 62.4084 82.0621 61.0452C82.6653 59.6835 82.868 57.9972 81.7993 55.988C81.6442 55.6964 81.5842 55.3637 81.6277 55.0364C81.6711 54.709 81.8158 54.4034 82.0415 54.1624L85.4457 50.5239C85.072 49.6467 84.3722 48.3389 83.2607 47.3446C82.1523 46.3502 80.6133 45.6377 78.3713 46.032C78.0461 46.0897 77.711 46.0443 77.4129 45.902C77.1148 45.7598 76.8686 45.5279 76.7088 45.2387L74.3022 40.8751Z" fill="white"/>
</g>
</g>
<defs>
<filter id="filter0_d_3_866" x="0.889111" y="0.914209" width="144.641" height="144.641" filterUnits="userSpaceOnUse" color-interpolation-filters="sRGB">
<feFlood flood-opacity="0" result="BackgroundImageFix"/>
<feColorMatrix in="SourceAlpha" type="matrix" values="0 0 0 0 0 0 0 0 0 0 0 0 0 0 0 0 0 0 127 0" result="hardAlpha"/>
<feOffset dy="19.8657"/>
<feGaussianBlur stdDeviation="20.6603"/>
<feComposite in2="hardAlpha" operator="out"/>
<feColorMatrix type="matrix" values="0 0 0 0 0.214693 0 0 0 0 0.223691 0 0 0 0 0.286679 0 0 0 0.13 0"/>
<feBlend mode="normal" in2="BackgroundImageFix" result="effect1_dropShadow_3_866"/>
<feBlend mode="normal" in="SourceGraphic" in2="effect1_dropShadow_3_866" result="shape"/>
</filter>
<linearGradient id="paint0_linear_3_866" x1="7.82403" y1="126.975" x2="136.348" y2="63.0947" gradientUnits="userSpaceOnUse">
<stop stop-color="#9363FF"/>
<stop offset="0.350017" stop-color="#D3BFFF"/>
<stop offset="0.590017" stop-color="#9363FF"/>
<stop offset="0.770017" stop-color="#B695FF"/>
<stop offset="1" stop-color="#9363FF"/>
</linearGradient>
<clipPath id="clip0_3_866">
<rect width="38" height="38" fill="white" transform="translate(54.2097 34.3691)"/>
</clipPath>
</defs>
</svg>
