<svg width="10" height="10" viewBox="0 0 10 10" fill="none" xmlns="http://www.w3.org/2000/svg">
<g clip-path="url(#clip0_142_650)">
<path d="M8.44225 7.43181C8.73045 7.43181 8.95908 7.25083 9.16466 6.9976C9.58581 6.47885 8.89452 6.06385 8.63092 5.86135C8.36309 5.655 8.06376 5.5378 7.76058 5.51052M7.37632 4.742C7.6311 4.742 7.87544 4.64079 8.0556 4.46063C8.23575 4.28048 8.33696 4.03613 8.33696 3.78135C8.33696 3.52657 8.23575 3.28223 8.0556 3.10207C7.87544 2.92191 7.6311 2.8207 7.37632 2.8207M1.69927 7.43181C1.41108 7.43181 1.18244 7.25083 0.976864 6.9976C0.555716 6.47885 1.247 6.06385 1.5106 5.86135C1.77843 5.655 2.07738 5.53742 2.38095 5.51052M2.57308 4.742C2.3183 4.742 2.07395 4.64079 1.8938 4.46063C1.71364 4.28048 1.61243 4.03613 1.61243 3.78135C1.61243 3.52657 1.71364 3.28223 1.8938 3.10207C2.07395 2.92191 2.3183 2.8207 2.57308 2.8207M3.566 6.32169C3.17329 6.56454 2.14386 7.06023 2.77059 7.68043C3.07761 7.98361 3.41845 8.20033 3.84766 8.20033H6.29463C6.72384 8.20033 7.06468 7.98361 7.37094 7.68043C7.99805 7.06023 6.96862 6.56454 6.5759 6.32169C6.12357 6.04272 5.60259 5.89498 5.07115 5.89498C4.5397 5.89498 4.01872 6.04272 3.56639 6.32169M6.41567 3.39709C6.41567 3.57371 6.38088 3.74859 6.31329 3.91177C6.24571 4.07494 6.14664 4.2232 6.02175 4.34809C5.89687 4.47297 5.74861 4.57204 5.58543 4.63962C5.42226 4.70721 5.24738 4.742 5.07076 4.742C4.89415 4.742 4.71926 4.70721 4.55609 4.63962C4.39292 4.57204 4.24465 4.47297 4.11977 4.34809C3.99488 4.2232 3.89582 4.07494 3.82823 3.91177C3.76064 3.74859 3.72585 3.57371 3.72585 3.39709C3.72585 3.0404 3.86755 2.69832 4.11977 2.4461C4.37199 2.19388 4.71407 2.05219 5.07076 2.05219C5.42745 2.05219 5.76954 2.19388 6.02175 2.4461C6.27397 2.69832 6.41567 3.0404 6.41567 3.39709Z" stroke="#546170" stroke-width="0.691667" stroke-linecap="round" stroke-linejoin="round"/>
</g>
<defs>
<clipPath id="clip0_142_650">
<rect width="9.22222" height="9.22222" fill="white" transform="translate(0.459717 0.515137)"/>
</clipPath>
</defs>
</svg>
