<svg width="10" height="11" viewBox="0 0 10 11" fill="none" xmlns="http://www.w3.org/2000/svg">
<g clip-path="url(#clip0_142_662)">
<path d="M6.41564 5.54284C6.41564 5.71946 6.38086 5.89435 6.31327 6.05752C6.24568 6.22069 6.14662 6.36895 6.02173 6.49384C5.89684 6.61872 5.74858 6.71779 5.58541 6.78538C5.42224 6.85296 5.24735 6.88775 5.07074 6.88775C4.89412 6.88775 4.71924 6.85296 4.55606 6.78538C4.39289 6.71779 4.24463 6.61872 4.11974 6.49384C3.99486 6.36895 3.89579 6.22069 3.8282 6.05752C3.76062 5.89435 3.72583 5.71946 3.72583 5.54284C3.72583 5.18615 3.86753 4.84407 4.11974 4.59185C4.37196 4.33963 4.71405 4.19794 5.07074 4.19794C5.42743 4.19794 5.76951 4.33963 6.02173 4.59185C6.27395 4.84407 6.41564 5.18615 6.41564 5.54284Z" stroke="#546170" stroke-width="0.691667" stroke-linecap="round" stroke-linejoin="round"/>
<path d="M8.4485 4.4485C8.75898 4.98262 8.91346 5.24968 8.91346 5.54287C8.91346 5.83606 8.7586 6.10312 8.4485 6.63724L7.70957 7.91144C7.40101 8.44326 7.24654 8.70916 6.99293 8.85518C6.73932 9.0012 6.43114 9.0012 5.81517 9.0012H4.32655C3.71059 9.0012 3.40241 9.0012 3.1488 8.85518C2.89519 8.70916 2.74072 8.44326 2.43216 7.91144L1.69323 6.63724C1.38313 6.10312 1.22827 5.83606 1.22827 5.54287C1.22827 5.24968 1.38313 4.98262 1.69323 4.4485L2.43216 3.17429C2.74072 2.64248 2.89519 2.37657 3.1488 2.23055C3.40241 2.08453 3.71059 2.08453 4.32655 2.08453H5.81517C6.43114 2.08453 6.73932 2.08453 6.99293 2.23055C7.24654 2.37657 7.40101 2.64248 7.70957 3.17429L8.4485 4.4485Z" stroke="#546170" stroke-width="0.691667" stroke-linecap="round" stroke-linejoin="round"/>
</g>
<defs>
<clipPath id="clip0_142_662">
<rect width="9.22222" height="9.22222" fill="white" transform="translate(0.459717 0.931763)"/>
</clipPath>
</defs>
</svg>
