<svg width="10" height="10" viewBox="0 0 10 10" fill="none" xmlns="http://www.w3.org/2000/svg">
<g clip-path="url(#clip0_142_644)">
<path d="M6.84339 6.557C5.83163 7.12686 5.25409 8.3073 5.0708 8.63776V3.45027C5.23027 3.16361 5.68638 2.34206 6.46643 1.78412C6.79497 1.54895 6.95905 1.43137 7.1677 1.53819C7.37636 1.64578 7.37636 1.88249 7.37636 2.35551V5.75236C7.37636 6.00828 7.37636 6.13624 7.32371 6.22577C7.27145 6.31569 7.12851 6.396 6.84339 6.557Z" stroke="#242627" stroke-width="0.691667" stroke-linecap="round" stroke-linejoin="round"/>
<path d="M5.07086 3.37574C4.80688 3.0983 4.04182 2.43968 2.75762 2.20912C2.10746 2.09192 1.78237 2.03352 1.50494 2.25754C1.22827 2.48195 1.22827 2.84546 1.22827 3.57363V6.19005C1.22827 6.85559 1.22827 7.18835 1.40618 7.39624C1.58371 7.60374 1.97489 7.67444 2.75801 7.81508C3.45544 7.94035 3.99993 8.14055 4.39418 8.34152C4.78229 8.53903 4.97595 8.63778 5.07086 8.63778C5.16578 8.63778 5.35983 8.53903 5.74716 8.34152C6.14179 8.14055 6.68629 7.94035 7.3841 7.81508C8.16646 7.67444 8.55802 7.60374 8.73554 7.39624C8.91346 7.18835 8.91346 6.85559 8.91346 6.18967V3.57401C8.91346 2.84623 8.91346 2.48233 8.63679 2.25792C8.35897 2.03352 7.76068 2.20912 7.37642 2.48963" stroke="#242627" stroke-width="0.691667" stroke-linecap="round" stroke-linejoin="round"/>
</g>
<defs>
<clipPath id="clip0_142_644">
<rect width="9.22222" height="9.22222" fill="white" transform="translate(0.459717 0.376221)"/>
</clipPath>
</defs>
</svg>
