<svg width="20" height="20" viewBox="0 0 20 20" fill="none" xmlns="http://www.w3.org/2000/svg">
<path d="M12.2461 3.64052C12.2461 4.17077 12.0355 4.67929 11.6606 5.05423C11.2856 5.42917 10.7771 5.63981 10.2468 5.63981C9.7166 5.63981 9.20808 5.42917 8.83314 5.05423C8.4582 4.67929 8.24756 4.17077 8.24756 3.64052C8.24756 3.11028 8.4582 2.60175 8.83314 2.22681C9.20808 1.85187 9.7166 1.64124 10.2468 1.64124C10.7771 1.64124 11.2856 1.85187 11.6606 2.22681C12.0355 2.60175 12.2461 3.11028 12.2461 3.64052Z" fill="#8BA518"/>
<path fill-rule="evenodd" clip-rule="evenodd" d="M8.60736 12.3574C8.73462 12.4529 8.81875 12.5949 8.84124 12.7524C8.86374 12.9099 8.82276 13.0699 8.72732 13.1971L7.89001 14.3127L7.83403 14.3871C7.54484 14.7528 7.14689 15.0172 6.69764 15.142L6.60727 15.1652L6.60087 15.1668L5.4133 15.4635C5.13762 15.5321 4.89286 15.6911 4.71805 15.915C4.54325 16.1389 4.44847 16.415 4.44884 16.6991C4.44884 16.8846 4.59999 17.0357 4.78552 17.0357H6.02988C6.5233 17.0357 6.72163 17.0349 6.91116 17.0118C7.37363 16.9576 7.82004 16.809 8.22269 16.5751C8.38744 16.4791 8.54738 16.3608 8.94244 16.0649L10.6866 14.7566C10.7496 14.7093 10.8213 14.6749 10.8976 14.6554C10.9739 14.6358 11.0533 14.6315 11.1313 14.6426C11.2093 14.6538 11.2843 14.6802 11.3521 14.7203C11.4198 14.7604 11.4791 14.8135 11.5263 14.8765C11.5736 14.9395 11.608 15.0112 11.6275 15.0875C11.6471 15.1638 11.6514 15.2432 11.6402 15.3212C11.6291 15.3992 11.6027 15.4742 11.5626 15.542C11.5225 15.6098 11.4694 15.669 11.4064 15.7162L10.6826 16.2584L11.6887 16.6359C12.1901 16.8238 12.3924 16.8982 12.5971 16.947C12.7091 16.9726 12.8211 16.9928 12.933 17.0078C13.1425 17.0349 13.3577 17.0357 13.8927 17.0357H15.708C15.7523 17.0359 15.7961 17.0272 15.837 17.0103C15.8779 16.9935 15.915 16.9687 15.9463 16.9374C15.9776 16.9061 16.0024 16.8689 16.0193 16.828C16.0362 16.7871 16.0448 16.7433 16.0447 16.6991C16.0447 16.1153 15.6472 15.6051 15.0802 15.4635L13.8863 15.1652L13.7959 15.1412C13.3471 15.0165 12.9494 14.7524 12.6603 14.3871C12.6419 14.3647 12.6251 14.3415 12.6027 14.3127L11.7662 13.1971C11.719 13.1341 11.6846 13.0624 11.665 12.9861C11.6455 12.9098 11.6412 12.8304 11.6523 12.7524C11.6634 12.6744 11.6898 12.5994 11.73 12.5317C11.7701 12.4639 11.8232 12.4047 11.8862 12.3574C11.9492 12.3102 12.0209 12.2758 12.0972 12.2562C12.1735 12.2367 12.2529 12.2323 12.3309 12.2435C12.4089 12.2546 12.4839 12.281 12.5516 12.3211C12.6194 12.3613 12.6786 12.4144 12.7259 12.4774L13.5592 13.5882L13.6008 13.6434C13.7467 13.8282 13.9531 13.9557 14.1838 14.0032L15.3713 14.2991C15.9065 14.4326 16.3816 14.7414 16.721 15.1761C17.0604 15.6109 17.2446 16.1467 17.2443 16.6983C17.2443 17.5476 16.5565 18.2353 15.708 18.2353H13.8519C13.3705 18.2353 13.0738 18.2353 12.7787 18.1969C12.6262 18.1767 12.4748 18.1492 12.3244 18.1146C12.0341 18.0466 11.7566 17.9426 11.3064 17.7739L9.54382 17.1133C9.23993 17.3412 9.0392 17.4892 8.82568 17.6123C8.28119 17.929 7.67746 18.1304 7.05191 18.2041C6.78401 18.2361 6.5113 18.2353 6.06826 18.2353H4.78552C4.58375 18.2354 4.38393 18.1958 4.1975 18.1186C4.01106 18.0414 3.84167 17.9283 3.69899 17.7856C3.55632 17.6429 3.44316 17.4735 3.36599 17.2871C3.28883 17.1007 3.24916 16.9008 3.24927 16.6991C3.24927 15.5635 4.02179 14.575 5.1222 14.2999L6.30978 14.0032L6.37615 13.9856C6.60324 13.9231 6.80093 13.7823 6.93435 13.5882L7.76766 12.4774C7.81492 12.4144 7.87412 12.3613 7.9419 12.3211C8.00967 12.281 8.08469 12.2546 8.16266 12.2435C8.24064 12.2323 8.32004 12.2367 8.39634 12.2562C8.47264 12.2758 8.54435 12.3102 8.60736 12.3574Z" fill="#8BA518"/>
<path opacity="0.5" d="M10.9416 7.89661C10.4815 7.82012 10.0119 7.82012 9.55171 7.89661C7.54683 8.23488 6.04896 9.99506 6.04896 12.0535C6.04896 12.5046 5.79545 12.9212 5.39 13.1259L3.31953 14.1728C3.17843 14.2379 3.01755 14.2458 2.87077 14.1947C2.724 14.1435 2.6028 14.0374 2.53271 13.8987C2.46262 13.76 2.44912 13.5995 2.49505 13.451C2.54098 13.3025 2.64275 13.1777 2.77893 13.1027L4.84779 12.0567L4.84859 12.0543C4.84859 9.41047 6.7695 7.14967 9.35258 6.71463C9.94455 6.61596 10.5488 6.61596 11.1407 6.71463C13.7238 7.14967 15.6447 9.41047 15.6447 12.0543V12.0559L17.7144 13.1027C17.7875 13.1365 17.8531 13.1847 17.9072 13.2443C17.9613 13.304 18.0028 13.3739 18.0293 13.45C18.0558 13.526 18.0667 13.6067 18.0614 13.687C18.056 13.7674 18.0346 13.8459 17.9983 13.9177C17.9619 13.9896 17.9115 14.0535 17.85 14.1054C17.7885 14.1574 17.7171 14.1965 17.6402 14.2203C17.5632 14.2441 17.4823 14.2521 17.4021 14.244C17.322 14.2358 17.2444 14.2116 17.1738 14.1728L15.1033 13.1267C14.9051 13.0265 14.7386 12.8731 14.6224 12.6838C14.5061 12.4944 14.4448 12.2765 14.4452 12.0543C14.4452 9.99586 12.9473 8.23568 10.9416 7.89741" fill="#8BA518"/>
</svg>
