<svg width="23" height="22" viewBox="0 0 23 22" fill="none" xmlns="http://www.w3.org/2000/svg">
<path opacity="0.5" fill-rule="evenodd" clip-rule="evenodd" d="M20.4279 10.9958C20.4279 16.0025 16.3695 20.0609 11.3628 20.0609C6.35608 20.0609 2.29761 16.0025 2.29761 10.9958C2.29761 5.98909 6.35608 1.93062 11.3628 1.93062C16.3695 1.93062 20.4279 5.98909 20.4279 10.9958Z" fill="#9062F8"/>
<path fill-rule="evenodd" clip-rule="evenodd" d="M11.3628 4.8768C11.5431 4.8768 11.7161 4.94843 11.8436 5.07593C11.9711 5.20344 12.0427 5.37637 12.0427 5.55669V5.84405C13.5203 6.10876 14.7622 7.21924 14.7622 8.72949C14.7622 8.90981 14.6906 9.08274 14.5631 9.21024C14.4356 9.33775 14.2627 9.40938 14.0824 9.40938C13.902 9.40938 13.7291 9.33775 13.6016 9.21024C13.4741 9.08274 13.4025 8.90981 13.4025 8.72949C13.4025 8.11487 12.8912 7.46309 12.0427 7.23102V10.3766C13.5203 10.6413 14.7622 11.7518 14.7622 13.2621C14.7622 14.7723 13.5203 15.8828 12.0427 16.1475V16.4349C12.0427 16.6152 11.9711 16.7881 11.8436 16.9156C11.7161 17.0431 11.5431 17.1148 11.3628 17.1148C11.1825 17.1148 11.0096 17.0431 10.8821 16.9156C10.7546 16.7881 10.6829 16.6152 10.6829 16.4349V16.1475C9.20531 15.8828 7.96338 14.7723 7.96338 13.2621C7.96338 13.0818 8.03501 12.9088 8.16251 12.7813C8.29002 12.6538 8.46295 12.5822 8.64327 12.5822C8.82358 12.5822 8.99651 12.6538 9.12402 12.7813C9.25152 12.9088 9.32315 13.0818 9.32315 13.2621C9.32315 13.8767 9.83443 14.5285 10.6829 14.7596V11.6149C9.20531 11.3502 7.96338 10.2397 7.96338 8.72949C7.96338 7.21924 9.20531 6.10876 10.6829 5.84405V5.55669C10.6829 5.37637 10.7546 5.20344 10.8821 5.07593C11.0096 4.94843 11.1825 4.8768 11.3628 4.8768ZM10.6829 7.23102C9.83443 7.46309 9.32315 8.11487 9.32315 8.72949C9.32315 9.34411 9.83443 9.9959 10.6829 10.2271V7.23102ZM13.4025 13.2621C13.4025 12.6475 12.8912 11.9957 12.0427 11.7645V14.7596C12.8912 14.5285 13.4025 13.8767 13.4025 13.2621Z" fill="#9062F8"/>
</svg>
