<svg width="20" height="20" viewBox="0 0 20 20" fill="none" xmlns="http://www.w3.org/2000/svg">
<path opacity="0.5" d="M2.24951 7.30429C2.24951 11.1933 5.46437 13.2654 7.81713 15.1207C8.64723 15.7749 9.44695 16.3914 10.2467 16.3914C11.0464 16.3914 11.8461 15.7757 12.6762 15.1199C15.0298 13.2662 18.2438 11.1933 18.2438 7.30509C18.2438 3.41687 13.8454 0.657058 10.2467 4.39652C6.64794 0.657058 2.24951 3.41527 2.24951 7.30429Z" fill="#F25AE5"/>
<path d="M13.8455 10.6231C11.8662 8.45109 9.44702 10.0537 9.44702 12.3121C9.44702 14.3594 10.8977 15.539 12.1325 16.5442L12.1677 16.573L12.5091 16.8529C12.9658 17.2328 13.4056 17.591 13.8455 17.591C14.2853 17.591 14.7251 17.2328 15.1818 16.8529C16.4757 15.7757 18.2439 14.5713 18.2439 12.3121C18.2439 11.5708 17.9832 10.899 17.5617 10.4088C16.702 9.40835 15.1746 9.16444 13.8455 10.6231Z" fill="#F25AE5"/>
</svg>
