<svg width="37" height="23" viewBox="0 0 37 23" fill="none" xmlns="http://www.w3.org/2000/svg">
<path fill-rule="evenodd" clip-rule="evenodd" d="M30.523 12.2584V22.744H36.1976L36.1206 10.3258C36.1206 9.95567 36.1152 9.32752 36.0604 8.51882C36.0055 7.71013 35.8294 6.87251 35.448 5.87864C35.0294 4.78806 34.3744 3.91684 33.5606 3.04042C32.6471 2.05659 31.9689 1.65519 31.2215 1.25345C30.125 0.664059 28.9828 0.199341 26.8344 0.199341C24.655 0.199341 22.9153 1.04751 21.8014 1.85532C21.2022 2.28982 20.7266 2.64026 20.3252 3.00596V0.539151H15.8148V0.53909C14.9849 0.539066 13.5738 0.539037 12.4601 0.53909C12.3495 0.53909 12.2312 0.536477 12.1047 0.533682C11.4265 0.518701 10.5115 0.498489 9.27671 0.847491C8.6462 1.02568 8.06367 1.27925 7.5291 1.60821C6.83006 2.01942 6.24067 2.54027 5.76094 3.17078C5.53384 3.46926 5.32824 3.78309 5.14414 4.11228V0.53909H0.209717V22.744H5.84318V11.3948C5.84318 10.545 5.95969 9.78427 6.19271 9.11264C6.42572 8.42731 6.76838 7.83792 7.22071 7.34448C7.67303 6.83733 8.22816 6.43298 8.88608 6.13143C9.544 5.81618 10.2773 5.63114 11.086 5.57631C11.6464 5.52961 12.9996 5.54655 14.2405 5.56209C14.6307 5.56697 15.0098 5.57172 15.3497 5.57431V22.744H21.0243V11.4771C21.0243 10.0927 21.175 8.98248 21.4766 8.14638C21.7918 7.31027 22.1893 6.67976 22.6691 6.25485C23.1488 5.81624 23.6628 5.52154 24.2111 5.37077C24.7594 5.21999 25.2733 5.1446 25.7531 5.1446C26.9456 5.1446 27.8639 5.41189 28.5081 5.94645C29.1661 6.48101 29.6389 7.14579 29.9268 7.94078C30.2146 8.73576 30.386 9.53077 30.4408 10.3258C30.4956 11.107 30.523 11.7513 30.523 12.2584Z" fill="#242627"/>
</svg>
